# xmcd CD database file
#
# Track frame offsets:
#	150
#	33432
#	96936
#	124486
#	187908
#	214184
#	271803
#
# Disc length: 4108 seconds
#
# Revision: 0
# Processed by: cddbd v1.5.2PL0 Copyright (c) Steve Scherf et al.
# Submitted via: CDex 1.51
#
DISCID=61100a07
DTITLE=Phil Thornton  - Rhythm of the Rainforest
DYEAR=2010
DGENRE=New Age
TTITLE0=Spirit Vine Part 1
TTITLE1=Heart of Green
TTITLE2=Dietera Dreams
TTITLE3=Yage
TTITLE4=Emerald Canopy 
TTITLE5=Kacha
TTITLE6=Spirit Vine Part 2
EXTD=YEAR: 2010
EXTT0=
EXTT1=
EXTT2=
EXTT3=
EXTT4=
EXTT5=
EXTT6=
PLAYORDER=
